<svg width="19" height="11" viewBox="0 0 19 11" fill="none" xmlns="http://www.w3.org/2000/svg">
<path d="M5.78129 10.143C4.76729 10.143 3.89629 9.948 3.16829 9.558C2.44029 9.168 1.88129 8.61767 1.49129 7.907C1.10996 7.19633 0.919289 6.36433 0.919289 5.411C0.919289 4.70033 1.02762 4.05467 1.24429 3.474C1.46962 2.89333 1.79029 2.395 2.20629 1.979C2.63096 1.563 3.14229 1.24667 3.74029 1.03C4.34696 0.804666 5.02729 0.692 5.78129 0.692C6.17996 0.692 6.59162 0.739666 7.01629 0.834999C7.44962 0.921666 7.83096 1.056 8.16029 1.238C8.40296 1.368 8.57196 1.53267 8.66729 1.732C8.76262 1.93133 8.79296 2.135 8.75829 2.343C8.73229 2.551 8.65862 2.73733 8.53729 2.902C8.41596 3.06667 8.25996 3.17933 8.06929 3.24C7.87862 3.292 7.67062 3.26167 7.44529 3.149C7.18529 3.02767 6.92529 2.93667 6.66529 2.876C6.41396 2.80667 6.14962 2.772 5.87229 2.772C5.33496 2.772 4.88429 2.876 4.52029 3.084C4.16496 3.28333 3.89629 3.578 3.71429 3.968C3.53229 4.358 3.44129 4.839 3.44129 5.411C3.44129 5.983 3.53229 6.46833 3.71429 6.867C3.89629 7.257 4.16496 7.556 4.52029 7.764C4.88429 7.96333 5.33496 8.063 5.87229 8.063C6.09762 8.063 6.34029 8.037 6.60029 7.985C6.86029 7.92433 7.11596 7.83333 7.36729 7.712C7.62729 7.59933 7.85696 7.569 8.05629 7.621C8.26429 7.673 8.42896 7.777 8.55029 7.933C8.68029 8.089 8.76262 8.271 8.79729 8.479C8.83196 8.67833 8.80162 8.87767 8.70629 9.077C8.61962 9.27633 8.46362 9.43667 8.23829 9.558C7.93496 9.74 7.55796 9.883 7.10729 9.987C6.66529 10.091 6.22329 10.143 5.78129 10.143ZM13.8663 10.117C13.5369 10.117 13.2683 10.0477 13.0603 9.909C12.8609 9.77033 12.6919 9.54933 12.5533 9.246L9.40727 2.304C9.26861 2.00067 9.22527 1.72767 9.27727 1.485C9.32927 1.24233 9.45061 1.056 9.64127 0.926C9.83194 0.787333 10.0703 0.717999 10.3563 0.717999C10.7116 0.717999 10.9759 0.795999 11.1493 0.951999C11.3313 1.108 11.4873 1.33767 11.6173 1.641L14.2693 7.777H13.5413L16.1933 1.628C16.3233 1.32467 16.4793 1.09933 16.6613 0.951999C16.8433 0.795999 17.0989 0.717999 17.4283 0.717999C17.6969 0.717999 17.9223 0.787333 18.1043 0.926C18.2863 1.056 18.3989 1.24233 18.4423 1.485C18.4943 1.72767 18.4509 2.00067 18.3123 2.304L15.1533 9.246C15.0233 9.54933 14.8586 9.77033 14.6593 9.909C14.4599 10.0477 14.1956 10.117 13.8663 10.117Z" fill="white"/>
</svg>
